<svg version="1.1" id="Layer_1" xmlns="http://www.w3.org/2000/svg" xmlns:xlink="http://www.w3.org/1999/xlink" x="0px" y="0px"
	 width="100%" viewBox="0 0 802 523" enable-background="new 0 0 802 523" xml:space="preserve">
<path fill="#0E0E0E" opacity="1.000000" stroke="none" 
	d="
M285.000000,524.000000 
	C265.312439,524.000000 245.624878,524.000000 225.401047,523.649780 
	C223.892151,521.378540 223.213806,519.223206 221.900543,517.573242 
	C210.876709,503.723297 199.588608,490.081696 188.681213,476.141693 
	C180.931000,466.236633 173.341110,456.176727 166.228149,445.809570 
	C156.189453,431.178192 146.243317,416.450836 137.032822,401.293427 
	C128.851883,387.830292 121.557121,373.815186 114.189972,359.875275 
	C108.153854,348.453857 102.392204,336.876556 96.870995,325.197174 
	C92.120514,315.148163 87.697121,304.933136 83.470917,294.651031 
	C79.636696,285.322571 76.215485,275.822449 72.701477,266.364838 
	C69.588058,257.985321 66.270561,249.661179 63.634636,241.129837 
	C60.265209,230.224457 57.467037,219.141769 54.463326,208.124405 
	C50.949665,195.236588 47.120094,182.420670 44.090023,169.419174 
	C40.933235,155.873978 38.442581,142.167618 35.911526,128.485306 
	C34.826561,122.620270 34.462944,116.625473 33.618572,110.711479 
	C31.797064,97.953590 29.671551,85.235352 28.080111,72.449898 
	C27.240778,65.706810 27.275465,58.855812 26.892868,52.054810 
	C25.935469,35.036152 24.965141,18.018221 24.000000,1.000000 
	C38.354229,1.000000 52.708454,1.000000 67.531342,1.468632 
	C68.329575,10.570422 68.465454,19.216230 69.028282,27.834156 
	C70.272194,46.880913 70.977303,66.004654 73.263229,84.932625 
	C77.652176,121.274033 84.667610,157.198624 94.478638,192.471939 
	C103.035866,223.237488 113.128044,253.548721 125.865822,282.879639 
	C132.811752,298.873840 139.698212,314.954559 147.801910,330.370483 
	C158.754837,351.206573 170.467682,371.671875 182.585068,391.857697 
	C191.628555,406.922821 201.613358,421.442352 211.604324,435.911133 
	C216.679199,443.260468 222.476837,450.148102 228.323334,456.920227 
	C246.119354,477.533722 264.119965,497.970490 281.961517,518.544922 
	C283.296265,520.084106 284.001923,522.168884 285.000000,524.000000 
z"/>
<path fill="#111111" opacity="1.000000" stroke="none" 
	d="
M285.468658,524.000000 
	C284.001923,522.168884 283.296265,520.084106 281.961517,518.544922 
	C264.119965,497.970490 246.119354,477.533722 228.323334,456.920227 
	C222.476837,450.148102 216.679199,443.260468 211.604324,435.911133 
	C201.613358,421.442352 191.628555,406.922821 182.585068,391.857697 
	C170.467682,371.671875 158.754837,351.206573 147.801910,330.370483 
	C139.698212,314.954559 132.811752,298.873840 125.865822,282.879639 
	C113.128044,253.548721 103.035866,223.237488 94.478638,192.471939 
	C84.667610,157.198624 77.652176,121.274033 73.263229,84.932625 
	C70.977303,66.004654 70.272194,46.880913 69.028282,27.834156 
	C68.465454,19.216230 68.329575,10.570422 68.000000,1.468632 
	C78.687561,1.000000 89.375122,1.000000 100.531342,1.467850 
	C101.651283,16.868706 102.022858,31.820707 103.035370,46.729179 
	C103.979340,60.628258 105.266022,74.524422 107.034447,88.340889 
	C108.528450,100.013412 110.746056,111.605110 112.972511,123.169212 
	C115.984787,138.814804 119.082901,154.451538 122.594238,169.990372 
	C124.529327,178.553757 127.166718,186.979752 129.870560,195.343857 
	C136.052521,214.467194 142.170593,233.620987 148.909119,252.550781 
	C152.686386,263.161926 157.428864,273.452118 162.131607,283.705688 
	C168.570435,297.744476 174.958694,311.835754 182.158218,325.488159 
	C189.349335,339.124634 197.325089,352.361816 205.303818,365.564392 
	C213.453491,379.049835 221.868408,392.382843 230.498337,405.565826 
	C233.433777,410.049957 237.375992,413.875031 240.919113,418.466431 
	C241.004257,424.916382 240.922760,430.903839 241.076477,436.885254 
	C241.332245,446.838562 247.020935,453.140045 257.462280,454.849182 
	C260.945099,454.895569 263.979919,454.863861 267.471741,454.889343 
	C271.626923,454.906525 275.325073,454.866516 279.486664,454.883301 
	C285.636353,454.908691 291.322662,454.877289 297.403381,454.906006 
	C300.224304,454.506989 302.650818,454.047852 305.426575,453.482422 
	C308.565735,450.587280 311.355621,447.798462 314.496826,445.031403 
	C316.357697,445.994598 318.107117,446.697723 319.327728,447.926300 
	C322.010895,450.626770 324.303955,453.713348 326.971130,456.431488 
	C348.607178,478.481323 370.723450,500.007294 395.216064,518.949097 
	C396.820099,520.189575 397.754242,522.296265 399.000000,524.000000 
	C361.312439,524.000000 323.624878,524.000000 285.468658,524.000000 
z"/>
<path fill="#2E2E2E" opacity="1.000000" stroke="none" 
	d="
M803.000000,259.000000 
	C803.000000,276.020905 803.000000,293.041779 802.532898,310.531128 
	C797.571228,310.944916 792.992920,311.425171 788.597656,310.736511 
	C774.690491,308.557526 760.783508,306.267212 747.011230,303.377563 
	C738.123474,301.512756 729.505554,298.395111 720.708130,296.059692 
	C698.337585,290.121063 677.525146,280.367218 657.712769,268.787048 
	C640.827454,258.917755 624.634399,247.873276 609.866516,234.764801 
	C592.397339,219.258591 576.053223,202.855286 562.434448,183.816574 
	C561.066040,181.903580 558.857727,180.591354 556.905396,178.620880 
	C555.168762,171.832199 553.565979,165.422958 551.951416,158.625885 
	C549.637390,152.487274 547.335144,146.736511 544.957886,140.638199 
	C539.254944,132.191833 533.626892,124.093002 527.846924,115.698257 
	C524.020630,111.642639 520.346375,107.882935 516.894104,103.874115 
	C516.841125,101.880974 516.757629,100.079994 516.258850,98.402527 
	C513.709778,89.830292 510.625397,81.393959 508.517212,72.718384 
	C502.795197,49.171284 499.812347,25.219578 499.000000,1.000000 
	C515.687561,1.000000 532.375122,1.000000 549.594543,1.354753 
	C551.176208,16.373627 551.121643,31.157286 555.046692,45.504154 
	C557.706665,55.226673 559.884338,65.099968 562.976318,74.680351 
	C566.371033,85.198517 569.982849,95.725471 574.572998,105.757652 
	C579.536194,116.605118 585.185730,127.235466 591.559998,137.312714 
	C597.735962,147.076492 604.881958,156.289368 612.227417,165.230270 
	C617.749939,171.952255 623.983276,178.164459 630.398071,184.062119 
	C640.444824,193.299026 650.559021,202.532242 661.316956,210.902969 
	C669.351379,217.154480 678.347290,222.208771 687.119385,227.454453 
	C690.557007,229.510117 695.262024,229.821686 698.149353,232.346237 
	C704.702271,238.075653 712.879395,240.020401 720.515625,242.937531 
	C729.931519,246.534485 740.282776,247.798569 749.492920,251.776764 
	C755.318542,254.293121 760.814514,254.976624 766.781372,255.070618 
	C768.229736,255.093414 769.661499,255.755829 771.113037,256.066986 
	C775.741211,257.059143 780.336365,258.496674 785.016663,258.881409 
	C790.974060,259.371094 797.002319,259.000000 803.000000,259.000000 
z"/>
<path fill="#1C1C1C" opacity="1.000000" stroke="none" 
	d="
M749.000000,524.000000 
	C681.979126,524.000000 614.958191,524.000000 547.445557,523.633179 
	C545.486816,521.636658 544.313538,519.484192 542.502625,518.466797 
	C534.202942,513.803955 525.492004,509.841644 517.371216,504.900391 
	C507.772614,499.059937 498.863586,492.081726 489.237610,486.291656 
	C470.142090,474.805481 452.797058,461.022980 435.762268,446.794434 
	C427.898468,440.226105 419.941223,433.740509 412.455322,426.757538 
	C405.573486,420.338104 399.141937,413.417816 392.736145,406.510315 
	C382.616669,395.598328 372.480591,384.689301 362.737457,373.444641 
	C354.927338,364.430878 347.376740,355.151733 340.302429,345.554352 
	C335.043335,338.419586 330.731354,330.586731 326.370239,322.978821 
	C327.499817,322.801086 328.256714,322.709320 329.452759,322.696564 
	C332.269287,322.720398 334.646667,322.665253 337.482910,322.692047 
	C342.975128,322.721558 348.008484,322.669128 353.501892,322.694153 
	C368.627533,322.744446 383.293060,322.717285 398.408264,322.762726 
	C405.616547,321.576843 409.789215,324.237457 413.029480,330.420929 
	C416.950012,337.902679 422.051819,344.765411 426.728271,352.202026 
	C430.558929,358.299896 434.303711,364.091736 438.106598,370.230194 
	C443.060852,378.192322 447.957031,385.807800 452.921753,393.751007 
	C458.520844,402.758148 464.051361,411.437592 469.677307,420.407471 
	C472.775757,425.328094 475.778809,429.958344 478.856262,434.910767 
	C482.571442,440.411865 486.212189,445.590759 490.074158,450.993347 
	C493.859192,452.422302 497.423035,453.627625 501.441223,454.901978 
	C505.259338,454.925171 508.623138,454.879333 512.437500,454.900604 
	C515.921204,454.928436 518.954346,454.889160 522.444580,454.917297 
	C526.598450,454.943420 530.295349,454.902130 534.453674,454.922607 
	C539.273193,454.937775 543.631165,454.891266 548.387268,454.902100 
	C549.857178,454.951569 550.929016,454.943634 552.098511,455.263092 
	C554.001160,456.995148 555.627869,458.764709 557.639099,459.747375 
	C575.680664,468.562073 593.646118,477.554138 611.914429,485.878296 
	C636.775146,497.206360 662.882751,505.166443 689.344849,511.581360 
	C707.942749,516.089905 727.025391,518.593567 745.874084,522.086853 
	C746.995728,522.294678 747.961609,523.342834 749.000000,524.000000 
z"/>
<path fill="#0C0C0C" opacity="1.000000" stroke="none" 
	d="
M23.531263,1.000000 
	C24.965141,18.018221 25.935469,35.036152 26.892868,52.054810 
	C27.275465,58.855812 27.240778,65.706810 28.080111,72.449898 
	C29.671551,85.235352 31.797064,97.953590 33.618572,110.711479 
	C34.462944,116.625473 34.826561,122.620270 35.911526,128.485306 
	C38.442581,142.167618 40.933235,155.873978 44.090023,169.419174 
	C47.120094,182.420670 50.949665,195.236588 54.463326,208.124405 
	C57.467037,219.141769 60.265209,230.224457 63.634636,241.129837 
	C66.270561,249.661179 69.588058,257.985321 72.701477,266.364838 
	C76.215485,275.822449 79.636696,285.322571 83.470917,294.651031 
	C87.697121,304.933136 92.120514,315.148163 96.870995,325.197174 
	C102.392204,336.876556 108.153854,348.453857 114.189972,359.875275 
	C121.557121,373.815186 128.851883,387.830292 137.032822,401.293427 
	C146.243317,416.450836 156.189453,431.178192 166.228149,445.809570 
	C173.341110,456.176727 180.931000,466.236633 188.681213,476.141693 
	C199.588608,490.081696 210.876709,503.723297 221.900543,517.573242 
	C223.213806,519.223206 223.892151,521.378540 224.932388,523.649780 
	C210.979111,524.000000 196.958206,524.000000 182.402405,523.653381 
	C180.058319,520.758850 178.282318,518.186584 176.434677,515.666870 
	C163.083817,497.459747 149.496445,479.420776 136.436630,461.007507 
	C127.890816,448.958588 119.820023,436.546906 112.055511,423.977081 
	C104.542801,411.814911 97.350784,399.425079 90.640190,386.804321 
	C81.964333,370.487488 73.592293,353.990631 65.691307,337.286621 
	C60.366436,326.028961 55.629139,314.441650 51.422596,302.717072 
	C41.431492,274.869598 30.759365,247.186798 22.538330,218.807144 
	C14.876990,192.359589 10.056990,165.090790 3.856937,138.213333 
	C3.501215,136.671265 1.979213,135.398239 0.999999,134.000000 
	C1.000000,89.666634 1.000000,45.333260 1.000000,1.000000 
	C8.437117,1.000000 15.749822,1.000000 23.531263,1.000000 
z"/>
<path fill="#181818" opacity="1.000000" stroke="none" 
	d="
M325.997528,323.064789 
	C330.731354,330.586731 335.043335,338.419586 340.302429,345.554352 
	C347.376740,355.151733 354.927338,364.430878 362.737457,373.444641 
	C372.480591,384.689301 382.616669,395.598328 392.736145,406.510315 
	C399.141937,413.417816 405.573486,420.338104 412.455322,426.757538 
	C419.941223,433.740509 427.898468,440.226105 435.762268,446.794434 
	C452.797058,461.022980 470.142090,474.805481 489.237610,486.291656 
	C498.863586,492.081726 507.772614,499.059937 517.371216,504.900391 
	C525.492004,509.841644 534.202942,513.803955 542.502625,518.466797 
	C544.313538,519.484192 545.486816,521.636658 546.976868,523.633179 
	C497.979095,524.000000 448.958221,524.000000 399.468658,524.000000 
	C397.754242,522.296265 396.820099,520.189575 395.216064,518.949097 
	C370.723450,500.007294 348.607178,478.481323 326.971130,456.431488 
	C324.303955,453.713348 322.010895,450.626770 319.327728,447.926300 
	C318.107117,446.697723 316.357697,445.994598 314.452667,444.629883 
	C314.760223,440.035339 316.052765,435.866974 316.073334,431.692322 
	C316.243774,397.064911 316.195526,362.436340 316.155548,327.808197 
	C316.152283,324.966980 315.980316,322.317108 320.435547,322.706757 
	C322.570892,322.879089 324.284210,322.971924 325.997528,323.064789 
z"/>
<path fill="#1F1F1F" opacity="1.000000" stroke="none" 
	d="
M749.468628,524.000000 
	C747.961609,523.342834 746.995728,522.294678 745.874084,522.086853 
	C727.025391,518.593567 707.942749,516.089905 689.344849,511.581360 
	C662.882751,505.166443 636.775146,497.206360 611.914429,485.878296 
	C593.646118,477.554138 575.680664,468.562073 557.639099,459.747375 
	C555.627869,458.764709 554.001160,456.995148 552.387817,455.078064 
	C564.895813,448.663727 569.080078,438.909271 563.089966,427.932831 
	C559.068848,420.564514 553.785217,413.885162 548.983032,406.561005 
	C544.637451,399.801453 540.375244,393.378387 536.019226,386.617828 
	C531.632812,379.823059 527.340210,373.365784 522.963989,366.573486 
	C520.404968,362.215271 517.929565,358.192108 515.846802,354.153198 
	C517.578979,354.689362 519.086975,355.008331 520.228271,355.834106 
	C524.778015,359.126190 529.088745,362.757843 533.713684,365.935150 
	C550.984741,377.800171 568.195435,389.764862 585.746094,401.205261 
	C592.663147,405.714111 600.394958,408.980927 607.790649,412.744873 
	C613.114807,415.454559 618.413391,418.239868 623.875549,420.646027 
	C629.647400,423.188599 635.613892,425.286285 641.468201,427.645691 
	C645.671875,429.339935 649.753235,431.370636 654.029541,432.843658 
	C659.435547,434.705872 665.005188,436.087036 670.466980,437.794861 
	C681.958374,441.388031 693.419556,445.078339 704.912598,448.666138 
	C705.995178,449.004059 707.227905,448.826050 708.371460,449.008820 
	C718.135315,450.569611 727.895752,452.152252 737.653137,453.752899 
	C738.300964,453.859192 738.901184,454.242371 739.548523,454.367188 
	C744.199463,455.264008 748.839417,456.243134 753.519836,456.951508 
	C755.803162,457.297089 758.300049,456.641937 760.470825,457.253845 
	C774.429688,461.188782 788.692139,461.268158 803.000000,461.000000 
	C803.000000,481.921173 803.000000,502.842316 803.000000,524.000000 
	C785.313171,524.000000 767.625244,524.000000 749.468628,524.000000 
z"/>
<path fill="#333333" opacity="1.000000" stroke="none" 
	d="
M803.000000,158.000000 
	C803.000000,177.354233 803.000000,196.708450 802.608276,216.453247 
	C800.915833,216.568634 799.626770,216.204132 798.312561,216.032700 
	C789.431580,214.874100 780.276367,214.741867 771.720459,212.406693 
	C756.922241,208.367783 742.419189,203.185181 727.931335,198.087418 
	C710.853699,192.078369 696.006592,181.962372 681.763855,171.129395 
	C670.479126,162.546249 658.811279,154.276703 650.510315,142.275192 
	C645.177673,134.565308 638.797119,127.587029 633.314697,119.972412 
	C624.460632,107.675140 617.275085,94.485130 611.354187,80.440376 
	C600.612549,54.960857 595.070618,28.509634 594.000000,1.000000 
	C613.020874,1.000000 632.041809,1.000000 651.531372,1.448051 
	C652.362244,6.529994 652.431152,11.208853 653.133545,15.790596 
	C658.332214,49.704414 671.844910,79.798019 695.090637,105.215294 
	C711.005066,122.616364 729.910156,135.873306 751.573669,145.329330 
	C768.035156,152.514740 785.328247,155.930084 803.000000,158.000000 
z"/>
<path fill="#303030" opacity="1.000000" stroke="none" 
	d="
M593.531372,1.000000 
	C595.070618,28.509634 600.612549,54.960857 611.354187,80.440376 
	C617.275085,94.485130 624.460632,107.675140 633.314697,119.972412 
	C638.797119,127.587029 645.177673,134.565308 650.510315,142.275192 
	C658.811279,154.276703 670.479126,162.546249 681.763855,171.129395 
	C696.006592,181.962372 710.853699,192.078369 727.931335,198.087418 
	C742.419189,203.185181 756.922241,208.367783 771.720459,212.406693 
	C780.276367,214.741867 789.431580,214.874100 798.312561,216.032700 
	C799.626770,216.204132 800.915833,216.568634 802.608276,216.921906 
	C803.000000,230.687561 803.000000,244.375122 803.000000,258.531342 
	C797.002319,259.000000 790.974060,259.371094 785.016663,258.881409 
	C780.336365,258.496674 775.741211,257.059143 771.113037,256.066986 
	C769.661499,255.755829 768.229736,255.093414 766.781372,255.070618 
	C760.814514,254.976624 755.318542,254.293121 749.492920,251.776764 
	C740.282776,247.798569 729.931519,246.534485 720.515625,242.937531 
	C712.879395,240.020401 704.702271,238.075653 698.149353,232.346237 
	C695.262024,229.821686 690.557007,229.510117 687.119385,227.454453 
	C678.347290,222.208771 669.351379,217.154480 661.316956,210.902969 
	C650.559021,202.532242 640.444824,193.299026 630.398071,184.062119 
	C623.983276,178.164459 617.749939,171.952255 612.227417,165.230270 
	C604.881958,156.289368 597.735962,147.076492 591.559998,137.312714 
	C585.185730,127.235466 579.536194,116.605118 574.572998,105.757652 
	C569.982849,95.725471 566.371033,85.198517 562.976318,74.680351 
	C559.884338,65.099968 557.706665,55.226673 555.046692,45.504154 
	C551.121643,31.157286 551.176208,16.373627 550.063232,1.354753 
	C564.354248,1.000000 578.708435,1.000000 593.531372,1.000000 
z"/>
<path fill="#151515" opacity="1.000000" stroke="none" 
	d="
M131.000000,1.000000 
	C146.020889,1.000000 161.041794,1.000000 176.531342,1.467850 
	C177.333328,10.732100 177.460922,19.542248 178.047638,28.321716 
	C178.954727,41.895252 179.681412,55.510525 181.392151,68.992943 
	C183.396637,84.790474 186.193329,100.496460 188.966217,116.185631 
	C194.594955,148.033417 203.264114,179.097290 214.308212,209.460892 
	C220.436218,226.308655 227.291321,242.898773 234.137680,259.473236 
	C235.702698,263.262024 238.583023,266.507446 240.916748,270.468353 
	C240.936569,301.623291 240.897644,332.312866 240.534332,362.917236 
	C238.903046,361.374268 237.316406,360.082855 236.334671,358.431732 
	C230.054932,347.870056 223.707443,337.340149 217.769348,326.586029 
	C210.640961,313.676147 203.607361,300.696686 197.087158,287.473969 
	C192.399231,277.967072 188.548660,268.041901 184.453918,258.249237 
	C179.980270,247.550339 175.123947,236.970261 171.390991,226.012512 
	C165.832001,209.694641 160.858490,193.163467 156.116333,176.585602 
	C152.416290,163.650848 148.802261,150.628952 146.305573,137.427231 
	C142.603638,117.852669 139.124893,98.170250 137.007889,78.377930 
	C134.257645,52.665253 132.936340,26.799734 131.000000,1.000000 
z"/>
<path fill="#232323" opacity="1.000000" stroke="none" 
	d="
M803.000000,460.531342 
	C788.692139,461.268158 774.429688,461.188782 760.470825,457.253845 
	C758.300049,456.641937 755.803162,457.297089 753.519836,456.951508 
	C748.839417,456.243134 744.199463,455.264008 739.548523,454.367188 
	C738.901184,454.242371 738.300964,453.859192 737.653137,453.752899 
	C727.895752,452.152252 718.135315,450.569611 708.371460,449.008820 
	C707.227905,448.826050 705.995178,449.004059 704.912598,448.666138 
	C693.419556,445.078339 681.958374,441.388031 670.466980,437.794861 
	C665.005188,436.087036 659.435547,434.705872 654.029541,432.843658 
	C649.753235,431.370636 645.671875,429.339935 641.468201,427.645691 
	C635.613892,425.286285 629.647400,423.188599 623.875549,420.646027 
	C618.413391,418.239868 613.114807,415.454559 607.790649,412.744873 
	C600.394958,408.980927 592.663147,405.714111 585.746094,401.205261 
	C568.195435,389.764862 550.984741,377.800171 533.713684,365.935150 
	C529.088745,362.757843 524.778015,359.126190 520.228271,355.834106 
	C519.086975,355.008331 517.578979,354.689362 515.655029,353.975067 
	C514.515869,353.141937 513.961182,352.471222 513.265625,351.477173 
	C509.463898,345.654694 505.803131,340.155579 502.043762,334.335449 
	C498.332306,328.590698 494.719421,323.166962 491.014282,317.417358 
	C489.169922,314.233612 487.417847,311.375732 485.574310,308.368713 
	C487.743164,307.323242 489.361633,306.543091 491.324158,305.716461 
	C494.774475,304.070190 497.880768,302.470367 501.331726,300.818298 
	C505.147369,298.593872 508.618317,296.421692 512.399780,294.179504 
	C513.111511,293.972290 513.512756,293.835114 514.077026,294.008759 
	C518.556152,298.442596 522.673523,302.800842 527.225220,306.644989 
	C541.551575,318.744476 555.314758,331.696747 570.660889,342.353394 
	C587.820679,354.269501 606.063599,364.814911 624.575378,374.549103 
	C649.919006,387.875732 676.616333,398.258209 704.516418,404.987244 
	C721.066956,408.978943 737.798828,412.447998 754.623108,415.008942 
	C770.631042,417.445587 786.865295,418.396088 803.000000,420.000000 
	C803.000000,433.354218 803.000000,446.708466 803.000000,460.531342 
z"/>
<path fill="#181818" opacity="1.000000" stroke="none" 
	d="
M240.858002,270.002960 
	C238.583023,266.507446 235.702698,263.262024 234.137680,259.473236 
	C227.291321,242.898773 220.436218,226.308655 214.308212,209.460892 
	C203.264114,179.097290 194.594955,148.033417 188.966217,116.185631 
	C186.193329,100.496460 183.396637,84.790474 181.392151,68.992943 
	C179.681412,55.510525 178.954727,41.895252 178.047638,28.321716 
	C177.460922,19.542248 177.333328,10.732100 177.000000,1.467850 
	C193.020889,1.000000 209.041794,1.000000 225.562180,1.419945 
	C226.707642,14.580205 227.148590,27.335169 228.057388,40.056709 
	C228.962814,52.730576 230.089691,65.400368 231.588760,78.016182 
	C232.695892,87.333603 234.285095,96.618172 236.203094,105.803871 
	C237.081589,110.011147 239.267181,113.945496 240.916718,118.467377 
	C240.991272,121.417976 241.014389,123.904800 241.026001,126.391670 
	C241.079605,137.880020 245.877777,144.100830 257.060394,147.524658 
	C259.830322,156.774582 262.248016,165.773453 265.407959,174.503662 
	C271.516876,191.381241 277.930115,208.151825 284.446442,224.877457 
	C287.696381,233.219193 291.452393,241.363785 294.520142,249.675003 
	C289.044098,249.855927 284.027405,249.959396 278.555847,249.977295 
	C274.402191,249.945053 270.703369,249.998367 266.559448,249.975098 
	C263.412292,249.967682 260.710205,250.036835 257.615234,250.062027 
	C247.140579,251.432083 241.778946,257.979950 240.858002,270.002960 
z"/>
<path fill="#262626" opacity="1.000000" stroke="none" 
	d="
M803.000000,419.531342 
	C786.865295,418.396088 770.631042,417.445587 754.623108,415.008942 
	C737.798828,412.447998 721.066956,408.978943 704.516418,404.987244 
	C676.616333,398.258209 649.919006,387.875732 624.575378,374.549103 
	C606.063599,364.814911 587.820679,354.269501 570.660889,342.353394 
	C555.314758,331.696747 541.551575,318.744476 527.225220,306.644989 
	C522.673523,302.800842 518.556152,298.442596 514.279236,293.757660 
	C518.909119,289.178162 523.499878,285.160583 528.382935,280.978271 
	C533.514099,274.545715 538.352844,268.277832 543.539734,262.033508 
	C545.630554,263.243439 547.545776,264.241089 549.085754,265.649139 
	C555.463379,271.480133 561.430420,277.796234 568.089905,283.275940 
	C586.827881,298.694275 606.230530,313.135925 627.458740,325.142059 
	C649.128418,337.397827 671.690308,347.545013 695.211548,355.402863 
	C717.576843,362.874512 740.357117,369.030396 763.986877,371.258270 
	C776.993225,372.484589 789.995728,373.751434 803.000000,375.000000 
	C803.000000,389.687561 803.000000,404.375122 803.000000,419.531342 
z"/>
<path fill="#121212" opacity="1.000000" stroke="none" 
	d="
M130.531342,1.000000 
	C132.936340,26.799734 134.257645,52.665253 137.007889,78.377930 
	C139.124893,98.170250 142.603638,117.852669 146.305573,137.427231 
	C148.802261,150.628952 152.416290,163.650848 156.116333,176.585602 
	C160.858490,193.163467 165.832001,209.694641 171.390991,226.012512 
	C175.123947,236.970261 179.980270,247.550339 184.453918,258.249237 
	C188.548660,268.041901 192.399231,277.967072 197.087158,287.473969 
	C203.607361,300.696686 210.640961,313.676147 217.769348,326.586029 
	C223.707443,337.340149 230.054932,347.870056 236.334671,358.431732 
	C237.316406,360.082855 238.903046,361.374268 240.593933,363.382568 
	C240.937988,381.955811 240.898087,399.978516 240.858170,418.001221 
	C237.375992,413.875031 233.433777,410.049957 230.498337,405.565826 
	C221.868408,392.382843 213.453491,379.049835 205.303818,365.564392 
	C197.325089,352.361816 189.349335,339.124634 182.158218,325.488159 
	C174.958694,311.835754 168.570435,297.744476 162.131607,283.705688 
	C157.428864,273.452118 152.686386,263.161926 148.909119,252.550781 
	C142.170593,233.620987 136.052521,214.467194 129.870560,195.343857 
	C127.166718,186.979752 124.529327,178.553757 122.594238,169.990372 
	C119.082901,154.451538 115.984787,138.814804 112.972511,123.169212 
	C110.746056,111.605110 108.528450,100.013412 107.034447,88.340889 
	C105.266022,74.524422 103.979340,60.628258 103.035370,46.729179 
	C102.022858,31.820707 101.651283,16.868706 101.000000,1.467850 
	C110.687561,1.000000 120.375122,1.000000 130.531342,1.000000 
z"/>
<path fill="#373737" opacity="1.000000" stroke="none" 
	d="
M803.000000,157.531342 
	C785.328247,155.930084 768.035156,152.514740 751.573669,145.329330 
	C729.910156,135.873306 711.005066,122.616364 695.090637,105.215294 
	C671.844910,79.798019 658.332214,49.704414 653.133545,15.790596 
	C652.431152,11.208853 652.362244,6.529994 652.000000,1.448051 
	C673.020874,1.000000 694.041809,1.000000 715.531372,1.441483 
	C718.826050,48.193687 755.448425,87.946640 803.000000,94.000000 
	C803.000000,115.020897 803.000000,136.041794 803.000000,157.531342 
z"/>
<path fill="#0A0A0A" opacity="1.000000" stroke="none" 
	d="
M0.999999,134.468658 
	C1.979213,135.398239 3.501215,136.671265 3.856937,138.213333 
	C10.056990,165.090790 14.876990,192.359589 22.538330,218.807144 
	C30.759365,247.186798 41.431492,274.869598 51.422596,302.717072 
	C55.629139,314.441650 60.366436,326.028961 65.691307,337.286621 
	C73.592293,353.990631 81.964333,370.487488 90.640190,386.804321 
	C97.350784,399.425079 104.542801,411.814911 112.055511,423.977081 
	C119.820023,436.546906 127.890816,448.958588 136.436630,461.007507 
	C149.496445,479.420776 163.083817,497.459747 176.434677,515.666870 
	C178.282318,518.186584 180.058319,520.758850 181.933746,523.653381 
	C168.645767,524.000000 155.291550,524.000000 141.446213,523.636597 
	C138.221619,518.954224 135.637238,514.532104 132.729172,510.334106 
	C119.133080,490.707031 104.609283,471.663300 92.016823,451.416077 
	C77.828667,428.603119 64.616623,405.103271 52.346546,381.200745 
	C41.153263,359.395874 31.386709,336.823883 21.760283,314.261932 
	C15.575625,299.766632 10.857664,284.649323 5.292377,269.882355 
	C4.357360,267.401398 2.455259,265.284912 1.000001,263.000000 
	C1.000000,220.312439 1.000000,177.624878 0.999999,134.468658 
z"/>
<path fill="#292928" opacity="1.000000" stroke="none" 
	d="
M803.000000,374.531311 
	C789.995728,373.751434 776.993225,372.484589 763.986877,371.258270 
	C740.357117,369.030396 717.576843,362.874512 695.211548,355.402863 
	C671.690308,347.545013 649.128418,337.397827 627.458740,325.142059 
	C606.230530,313.135925 586.827881,298.694275 568.089905,283.275940 
	C561.430420,277.796234 555.463379,271.480133 549.085754,265.649139 
	C547.545776,264.241089 545.630554,263.243439 543.598511,261.743561 
	C543.570984,260.688202 543.832703,259.946320 544.353333,258.972382 
	C547.075684,252.494324 549.539124,246.248352 552.262146,239.744308 
	C553.750427,234.992508 554.979126,230.498779 556.554993,226.029236 
	C558.643250,227.244095 560.572144,228.233810 562.095520,229.657471 
	C573.630371,240.437302 584.568970,251.927750 596.713318,261.962341 
	C608.544373,271.738129 621.146790,280.761292 634.214905,288.808655 
	C647.449219,296.958313 661.452820,303.965668 675.528564,310.606293 
	C685.848816,315.475189 696.680725,319.405731 707.556152,322.912384 
	C719.667053,326.817413 731.999634,330.139648 744.399048,333.009949 
	C753.252808,335.059479 762.354553,336.106781 771.384705,337.307343 
	C781.900879,338.705505 792.459717,339.783234 803.000000,341.000000 
	C803.000000,352.020905 803.000000,363.041779 803.000000,374.531311 
z"/>
<path fill="#2B2B2A" opacity="1.000000" stroke="none" 
	d="
M803.000000,340.531342 
	C792.459717,339.783234 781.900879,338.705505 771.384705,337.307343 
	C762.354553,336.106781 753.252808,335.059479 744.399048,333.009949 
	C731.999634,330.139648 719.667053,326.817413 707.556152,322.912384 
	C696.680725,319.405731 685.848816,315.475189 675.528564,310.606293 
	C661.452820,303.965668 647.449219,296.958313 634.214905,288.808655 
	C621.146790,280.761292 608.544373,271.738129 596.713318,261.962341 
	C584.568970,251.927750 573.630371,240.437302 562.095520,229.657471 
	C560.572144,228.233810 558.643250,227.244095 556.532043,225.618927 
	C556.454407,209.789719 556.746826,194.395004 557.039246,179.000305 
	C558.857727,180.591354 561.066040,181.903580 562.434448,183.816574 
	C576.053223,202.855286 592.397339,219.258591 609.866516,234.764801 
	C624.634399,247.873276 640.827454,258.917755 657.712769,268.787048 
	C677.525146,280.367218 698.337585,290.121063 720.708130,296.059692 
	C729.505554,298.395111 738.123474,301.512756 747.011230,303.377563 
	C760.783508,306.267212 774.690491,308.557526 788.597656,310.736511 
	C792.992920,311.425171 797.571228,310.944916 802.532898,310.999817 
	C803.000000,320.687561 803.000000,330.375122 803.000000,340.531342 
z"/>
<path fill="#070707" opacity="1.000000" stroke="none" 
	d="
M1.000001,263.468658 
	C2.455259,265.284912 4.357360,267.401398 5.292377,269.882355 
	C10.857664,284.649323 15.575625,299.766632 21.760283,314.261932 
	C31.386709,336.823883 41.153263,359.395874 52.346546,381.200745 
	C64.616623,405.103271 77.828667,428.603119 92.016823,451.416077 
	C104.609283,471.663300 119.133080,490.707031 132.729172,510.334106 
	C135.637238,514.532104 138.221619,518.954224 140.977554,523.636597 
	C127.979103,524.000000 114.958214,524.000000 101.402130,523.652771 
	C100.283989,522.118286 99.838112,520.836975 99.097305,519.758057 
	C89.603302,505.931824 79.644470,492.403503 70.646622,478.263123 
	C58.880634,459.772491 47.108910,441.211365 36.728764,421.932648 
	C24.976566,400.105682 14.779525,377.442200 3.833444,355.178253 
	C3.230113,353.951111 1.959836,353.051880 1.000000,352.000000 
	C1.000000,322.645782 1.000000,293.291534 1.000001,263.468658 
z"/>
<path fill="#050505" opacity="1.000000" stroke="none" 
	d="
M1.000000,352.468658 
	C1.959836,353.051880 3.230113,353.951111 3.833444,355.178253 
	C14.779525,377.442200 24.976566,400.105682 36.728764,421.932648 
	C47.108910,441.211365 58.880634,459.772491 70.646622,478.263123 
	C79.644470,492.403503 89.603302,505.931824 99.097305,519.758057 
	C99.838112,520.836975 100.283989,522.118286 100.933472,523.652771 
	C67.720360,524.000000 34.440716,524.000000 1.000000,524.000000 
	C1.000000,466.979218 1.000000,409.958252 1.000000,352.468658 
z"/>
<path fill="#3C3C3C" opacity="1.000000" stroke="none" 
	d="
M803.000000,93.531342 
	C755.448425,87.946640 718.826050,48.193687 716.000000,1.441483 
	C744.929321,1.000000 773.858704,1.000000 803.000000,1.000000 
	C803.000000,31.687235 803.000000,62.374958 803.000000,93.531342 
z"/>
<path fill="#1C1C1C" opacity="1.000000" stroke="none" 
	d="
M240.859985,118.003616 
	C239.267181,113.945496 237.081589,110.011147 236.203094,105.803871 
	C234.285095,96.618172 232.695892,87.333603 231.588760,78.016182 
	C230.089691,65.400368 228.962814,52.730576 228.057388,40.056709 
	C227.148590,27.335169 226.707642,14.580205 226.030838,1.419945 
	C245.020889,1.000000 264.041779,1.000000 283.531342,1.466663 
	C284.681000,16.032978 285.052307,30.156761 286.148376,44.224072 
	C286.920441,54.133568 288.677216,63.966343 289.544434,73.893936 
	C286.070709,74.026093 283.046875,74.097687 279.565338,74.100151 
	C275.409973,74.075188 271.712250,74.119347 267.563232,74.100616 
	C264.079590,74.101372 261.047211,74.165024 257.630981,74.200203 
	C247.831696,75.729462 241.237350,83.182198 241.069778,92.647469 
	C240.920166,101.098106 240.923920,109.551460 240.859985,118.003616 
z"/>
<path fill="#1F1F1F" opacity="1.000000" stroke="none" 
	d="
M289.994324,73.833374 
	C288.677216,63.966343 286.920441,54.133568 286.148376,44.224072 
	C285.052307,30.156761 284.681000,16.032978 284.000000,1.466663 
	C304.354218,1.000000 324.708466,1.000000 345.531372,1.467284 
	C346.948822,15.834869 347.763062,29.746103 348.891388,43.631813 
	C349.710327,53.710186 350.945068,63.754772 351.532593,73.878525 
	C346.383606,74.015846 341.696472,74.089073 336.569458,74.091476 
	C333.755920,74.066376 331.382263,74.112083 328.558655,74.088097 
	C325.075592,74.064980 322.042450,74.111565 318.555176,74.089951 
	C314.737579,74.067726 311.374115,74.113701 307.551086,74.092712 
	C303.065430,74.074089 299.039368,74.122437 294.598450,74.105110 
	C292.787201,73.970757 291.390747,73.902069 289.994324,73.833374 
z"/>
<path fill="#232323" opacity="1.000000" stroke="none" 
	d="
M351.994446,73.814423 
	C350.945068,63.754772 349.710327,53.710186 348.891388,43.631813 
	C347.763062,29.746103 346.948822,15.834869 346.000000,1.467284 
	C365.687561,1.000000 385.375122,1.000000 405.531616,1.468367 
	C406.962433,16.257423 407.662415,30.602222 408.977417,44.890419 
	C409.868988,54.577805 411.624481,64.185684 412.529480,73.895386 
	C402.381287,74.027878 392.697235,74.094093 382.553345,74.083145 
	C377.732147,74.057793 373.370728,74.109604 368.549316,74.087997 
	C363.731445,74.061951 359.373627,74.109314 354.642303,74.080627 
	C353.510681,73.941185 352.752563,73.877800 351.994446,73.814423 
z"/>
<path fill="#2B2B2A" opacity="1.000000" stroke="none" 
	d="
M498.531342,1.000000 
	C499.812347,25.219578 502.795197,49.171284 508.517212,72.718384 
	C510.625397,81.393959 513.709778,89.830292 516.258850,98.402527 
	C516.757629,100.079994 516.841125,101.880974 516.613647,103.743942 
	C514.738281,102.917274 513.365417,101.971657 511.811371,100.744919 
	C508.627930,98.523483 505.625641,96.583153 502.387512,94.383347 
	C498.430573,92.125969 494.709473,90.128067 490.683136,87.944962 
	C486.969666,86.315186 483.561462,84.870621 479.858185,83.265030 
	C476.701111,82.173378 473.839050,81.242744 470.638641,80.183411 
	C468.484375,79.543633 466.668457,79.032547 464.825317,78.105026 
	C458.794586,52.475475 455.823639,26.874914 455.000000,1.000000 
	C469.354218,1.000000 483.708466,1.000000 498.531342,1.000000 
z"/>
<path fill="#292928" opacity="1.000000" stroke="none" 
	d="
M454.531342,1.000000 
	C455.823639,26.874914 458.794586,52.475475 464.410217,78.054474 
	C460.006104,77.703796 455.989838,76.987244 451.557373,76.176987 
	C447.758606,75.747711 444.376068,75.412132 440.587830,74.972824 
	C435.447418,74.656174 430.712677,74.443260 425.522217,74.149170 
	C421.042206,73.988365 417.017883,73.908745 412.993591,73.829117 
	C411.624481,64.185684 409.868988,54.577805 408.977417,44.890419 
	C407.662415,30.602222 406.962433,16.257423 406.000244,1.468367 
	C422.020905,1.000000 438.041779,1.000000 454.531342,1.000000 
z"/>
<path fill="#AE8949" opacity="1.000000" stroke="none" 
	d="
M279.010681,250.062851 
	C284.027405,249.959396 289.044098,249.855927 294.854950,249.763367 
	C296.100616,249.866043 296.552124,249.957809 297.001740,250.515137 
	C297.002869,318.935760 297.005890,386.890839 297.008942,454.845886 
	C291.322662,454.877289 285.636353,454.908691 279.483276,454.426117 
	C279.014557,385.962372 279.012604,318.012604 279.010681,250.062851 
z"/>
<path fill="#97682F" opacity="1.000000" stroke="none" 
	d="
M240.919113,418.466431 
	C240.898087,399.978516 240.937988,381.955811 240.918304,363.467773 
	C240.897644,332.312866 240.936569,301.623291 240.916748,270.468353 
	C241.778946,257.979950 247.140579,251.432083 257.613037,250.523132 
	C258.002014,311.479309 258.034332,371.930450 257.955353,432.381500 
	C257.945587,439.845123 257.342468,447.307922 257.014282,454.771118 
	C247.020935,453.140045 241.332245,446.838562 241.076477,436.885254 
	C240.922760,430.903839 241.004257,424.916382 240.919113,418.466431 
z"/>
<path fill="#BC9B59" opacity="1.000000" stroke="none" 
	d="
M320.013489,322.627258 
	C315.980316,322.317108 316.152283,324.966980 316.155548,327.808197 
	C316.195526,362.436340 316.243774,397.064911 316.073334,431.692322 
	C316.052765,435.866974 314.760223,440.035339 314.101349,444.608154 
	C311.355621,447.798462 308.565735,450.587280 305.414124,452.972260 
	C305.036957,385.066528 305.021515,317.564636 305.466614,249.987717 
	C310.618408,249.954346 315.309662,249.996033 319.998779,250.504013 
	C320.002319,274.855957 320.007904,298.741608 320.013489,322.627258 
z"/>
<path fill="#A47A3D" opacity="1.000000" stroke="none" 
	d="
M278.555847,249.977295 
	C279.012604,318.012604 279.014557,385.962372 279.019867,454.369324 
	C275.325073,454.866516 271.626923,454.906525 267.468597,454.431946 
	C267.007141,385.962128 267.005859,318.006897 267.004547,250.051682 
	C270.703369,249.998367 274.402191,249.945053 278.555847,249.977295 
z"/>
<path fill="#9D7035" opacity="1.000000" stroke="none" 
	d="
M266.559448,249.975098 
	C267.005859,318.006897 267.007141,385.962128 267.011597,454.374756 
	C263.979919,454.863861 260.945099,454.895569 257.462311,454.849182 
	C257.342468,447.307922 257.945587,439.845123 257.955353,432.381500 
	C258.034332,371.930450 258.002014,311.479309 258.005890,250.567078 
	C260.710205,250.036835 263.412292,249.967682 266.559448,249.975098 
z"/>
<path fill="#B59251" opacity="1.000000" stroke="none" 
	d="
M305.006042,250.062775 
	C305.021515,317.564636 305.036957,385.066528 305.064880,453.078552 
	C302.650818,454.047852 300.224304,454.506989 297.403381,454.906006 
	C297.005890,386.890839 297.002869,318.935760 297.441711,250.443359 
	C300.257751,249.958267 302.631897,250.010513 305.006042,250.062775 
z"/>
<path fill="#AE8949" opacity="1.000000" stroke="none" 
	d="
M511.992523,101.026031 
	C513.365417,101.971657 514.738281,102.917274 516.391602,103.993065 
	C520.346375,107.882935 524.020630,111.642639 527.760864,116.107635 
	C527.549683,119.110046 527.033020,121.406944 527.030945,123.704315 
	C526.984741,173.914368 526.981445,224.124481 527.042053,274.334503 
	C527.044800,276.604401 527.725647,278.873535 528.090576,281.143005 
	C523.499878,285.160583 518.909119,289.178162 514.116211,293.446838 
	C513.512756,293.835114 513.111511,293.972290 512.379761,293.693054 
	C512.030334,229.193130 512.011414,165.109573 511.992523,101.026031 
z"/>
<path fill="#A47A3D" opacity="1.000000" stroke="none" 
	d="
M528.382935,280.978271 
	C527.725647,278.873535 527.044800,276.604401 527.042053,274.334503 
	C526.981445,224.124481 526.984741,173.914368 527.030945,123.704315 
	C527.033020,121.406944 527.549683,119.110046 527.912781,116.403549 
	C533.626892,124.093002 539.254944,132.191833 544.601135,140.802246 
	C543.877136,143.333420 543.054199,145.352142 543.049561,147.372742 
	C542.970642,181.859619 542.967590,216.346771 543.040649,250.833664 
	C543.046570,253.624664 543.727356,256.414246 544.094482,259.204468 
	C543.832703,259.946320 543.570984,260.688202 543.250366,261.720032 
	C538.352844,268.277832 533.514099,274.545715 528.382935,280.978271 
z"/>
<path fill="#9D7035" opacity="1.000000" stroke="none" 
	d="
M544.353394,258.972382 
	C543.727356,256.414246 543.046570,253.624664 543.040649,250.833664 
	C542.967590,216.346771 542.970642,181.859619 543.049561,147.372742 
	C543.054199,145.352142 543.877136,143.333420 544.676025,141.149780 
	C547.335144,146.736511 549.637390,152.487274 551.723572,158.928772 
	C551.006226,161.855606 550.080505,164.089630 550.069397,166.328186 
	C549.960205,188.375046 549.938904,210.423111 550.090576,232.469452 
	C550.107849,234.984711 551.335876,237.491623 552.002563,240.002396 
	C549.539124,246.248352 547.075684,252.494324 544.353394,258.972382 
z"/>
<path fill="#97682F" opacity="1.000000" stroke="none" 
	d="
M552.262146,239.744308 
	C551.335876,237.491623 550.107849,234.984711 550.090576,232.469452 
	C549.938904,210.423111 549.960205,188.375046 550.069397,166.328186 
	C550.080505,164.089630 551.006226,161.855606 551.735352,159.316605 
	C553.565979,165.422958 555.168762,171.832199 556.905396,178.620880 
	C556.746826,194.395004 556.454407,209.789719 556.184875,225.594727 
	C554.979126,230.498779 553.750427,234.992508 552.262146,239.744308 
z"/>
<path fill="#ECE091" opacity="1.000000" stroke="none" 
	d="
M426.642395,351.896027 
	C422.051819,344.765411 416.950012,337.902679 413.029480,330.420929 
	C409.789215,324.237457 405.616547,321.576843 398.047241,322.574463 
	C390.539337,322.141144 383.842133,321.968689 377.105286,321.349091 
	C377.046783,297.292542 377.027893,273.683105 377.470367,249.988678 
	C379.919708,249.885559 381.907837,249.875168 383.895721,249.848114 
	C395.966339,249.683823 408.036865,249.515732 420.529419,249.442291 
	C422.960907,249.465027 424.970367,249.394424 427.012939,249.723785 
	C427.361603,252.922897 427.936401,255.720764 427.950256,258.521423 
	C428.034973,275.684967 428.165039,292.851471 427.938629,310.012451 
	C427.754395,323.976929 427.092499,337.935059 426.642395,351.896027 
z"/>
<path fill="#C2A560" opacity="1.000000" stroke="none" 
	d="
M480.153229,83.426056 
	C483.561462,84.870621 486.969666,86.315186 490.684082,88.404579 
	C490.986877,161.287231 490.983490,233.525070 490.980103,305.762909 
	C489.361633,306.543091 487.743164,307.323242 485.574310,308.368713 
	C487.417847,311.375732 489.169922,314.233612 490.980286,317.861237 
	C490.692780,323.755798 490.063660,328.879669 490.046295,334.005554 
	C489.914459,372.926697 489.902344,411.848236 489.852936,450.769653 
	C486.212189,445.590759 482.571442,440.411865 479.027222,434.481476 
	C479.415680,431.607178 479.934326,429.487091 479.959442,427.361145 
	C480.057587,419.045654 480.000000,410.728394 480.000000,402.411774 
	C480.000000,345.526154 480.027618,288.640503 479.899994,231.755188 
	C479.894836,229.451691 478.423370,227.151474 477.743439,224.506012 
	C478.099243,223.485947 478.346710,222.809631 478.786438,221.859192 
	C480.006378,218.265228 481.369232,215.007843 482.001587,211.614334 
	C484.281799,199.377304 482.826935,187.485809 478.410645,175.822067 
	C479.171326,173.625061 479.937744,171.600739 479.946869,169.573013 
	C480.075867,140.857635 480.102112,112.141785 480.153229,83.426056 
z"/>
<path fill="#CEB56E" opacity="1.000000" stroke="none" 
	d="
M469.581909,420.117035 
	C464.051361,411.437592 458.520844,402.758148 453.086761,393.335846 
	C453.457489,389.967651 453.968292,387.342560 453.970978,384.716980 
	C454.019012,337.800568 454.005432,290.884125 454.250671,243.718918 
	C459.549652,240.406921 464.603088,237.343704 469.777191,234.732010 
	C470.264832,238.134018 470.948456,241.084167 470.951874,244.035095 
	C471.015686,299.291290 471.024048,354.547668 470.938080,409.803833 
	C470.932709,413.242279 470.054199,416.679321 469.581909,420.117035 
z"/>
<path fill="#DBC77D" opacity="1.000000" stroke="none" 
	d="
M454.005096,243.967697 
	C454.005432,290.884125 454.019012,337.800568 453.970978,384.716980 
	C453.968292,387.342560 453.457489,389.967651 453.018188,393.008118 
	C447.957031,385.807800 443.060852,378.192322 438.262085,369.852234 
	C438.573364,366.994720 438.971832,364.862030 438.973846,362.728912 
	C439.009827,324.507721 438.997803,286.286530 439.357849,247.919586 
	C444.481445,246.505142 449.243286,245.236420 454.005096,243.967697 
z"/>
<path fill="#C8AD68" opacity="1.000000" stroke="none" 
	d="
M469.677307,420.407471 
	C470.054199,416.679321 470.932709,413.242279 470.938080,409.803833 
	C471.024048,354.547668 471.015686,299.291290 470.951874,244.035095 
	C470.948456,241.084167 470.264832,238.134018 469.932312,234.459030 
	C472.522827,230.772949 475.078949,227.811340 477.635071,224.849731 
	C478.423370,227.151474 479.894836,229.451691 479.899994,231.755188 
	C480.027618,288.640503 480.000000,345.526154 480.000000,402.411774 
	C480.000000,410.728394 480.057587,419.045654 479.959442,427.361145 
	C479.934326,429.487091 479.415680,431.607178 478.952820,434.159271 
	C475.778809,429.958344 472.775757,425.328094 469.677307,420.407471 
z"/>
<path fill="#BC9B59" opacity="1.000000" stroke="none" 
	d="
M490.074158,450.993347 
	C489.902344,411.848236 489.914459,372.926697 490.046295,334.005554 
	C490.063660,328.879669 490.692780,323.755798 491.072571,318.187134 
	C494.719421,323.166962 498.332306,328.590698 501.987183,334.779053 
	C501.686127,338.839600 501.051514,342.134888 501.044678,345.431519 
	C500.969238,381.898529 500.991272,418.365753 500.986877,454.832916 
	C497.423035,453.627625 493.859192,452.422302 490.074158,450.993347 
z"/>
<path fill="#E2D185" opacity="1.000000" stroke="none" 
	d="
M438.996094,248.065308 
	C438.997803,286.286530 439.009827,324.507721 438.973846,362.728912 
	C438.971832,364.862030 438.573364,366.994720 438.203979,369.505585 
	C434.303711,364.091736 430.558929,358.299896 426.728271,352.202026 
	C427.092499,337.935059 427.754395,323.976929 427.938629,310.012451 
	C428.165039,292.851471 428.034973,275.684967 427.950256,258.521423 
	C427.936401,255.720764 427.361603,252.922897 427.438232,249.612320 
	C431.552277,248.755707 435.274170,248.410507 438.996094,248.065308 
z"/>
<path fill="#B59251" opacity="1.000000" stroke="none" 
	d="
M501.441223,454.901978 
	C500.991272,418.365753 500.969238,381.898529 501.044678,345.431519 
	C501.051514,342.134888 501.686127,338.839600 502.085754,335.100037 
	C505.803131,340.155579 509.463898,345.654694 512.975098,351.806946 
	C512.550293,354.563965 512.039001,356.667450 512.035339,358.771790 
	C511.980072,390.792297 511.991272,422.812897 511.986938,454.833496 
	C508.623138,454.879333 505.259338,454.925171 501.441223,454.901978 
z"/>
<path fill="#DBC77D" opacity="1.000000" stroke="none" 
	d="
M377.144928,321.796265 
	C383.842133,321.968689 390.539337,322.141144 397.597595,322.501892 
	C383.293060,322.717285 368.627533,322.744446 353.498199,322.250244 
	C353.024078,297.833771 353.013763,273.938629 353.442078,249.965515 
	C356.248962,249.796112 358.617188,249.704742 361.423309,249.704742 
	C364.241913,249.880875 366.622620,249.965622 369.001465,250.515778 
	C368.998535,272.103821 368.995514,293.226410 368.997375,314.349030 
	C368.998047,322.199738 369.003265,322.199738 377.144928,321.796265 
z"/>
<path fill="#CEB56E" opacity="1.000000" stroke="none" 
	d="
M353.003418,250.043518 
	C353.013763,273.938629 353.024078,297.833771 353.038116,322.172791 
	C348.008484,322.669128 342.975128,322.721558 337.480164,322.248718 
	C337.013275,297.831604 337.007965,273.939789 337.463074,249.964951 
	C342.950104,249.935776 347.976776,249.989639 353.003418,250.043518 
z"/>
<path fill="#AE8949" opacity="1.000000" stroke="none" 
	d="
M512.437500,454.900604 
	C511.991272,422.812897 511.980072,390.792297 512.035339,358.771790 
	C512.039001,356.667450 512.550293,354.563965 513.115967,352.130310 
	C513.961182,352.471222 514.515869,353.141937 515.262329,353.990784 
	C517.929565,358.192108 520.404968,362.215271 522.952759,367.048218 
	C523.019165,394.074127 523.043701,420.290436 522.962830,446.506378 
	C522.954224,449.288544 522.327454,452.068756 521.987549,454.849854 
	C518.954346,454.889160 515.921204,454.928436 512.437500,454.900604 
z"/>
<path fill="#A47A3D" opacity="1.000000" stroke="none" 
	d="
M522.444580,454.917297 
	C522.327454,452.068756 522.954224,449.288544 522.962830,446.506378 
	C523.043701,420.290436 523.019165,394.074127 523.036377,367.383240 
	C527.340210,373.365784 531.632812,379.823059 535.743774,386.895264 
	C535.044861,389.880829 534.093506,392.248718 534.078674,394.622467 
	C533.953003,414.701294 533.998230,434.781250 533.992188,454.860840 
	C530.295349,454.902130 526.598450,454.943420 522.444580,454.917297 
z"/>
<path fill="#9D7035" opacity="1.000000" stroke="none" 
	d="
M534.453674,454.922577 
	C533.998230,434.781250 533.953003,414.701294 534.078674,394.622467 
	C534.093506,392.248718 535.044861,389.880829 535.837646,387.232788 
	C540.375244,393.378387 544.637451,399.801453 548.814087,406.951202 
	C548.486572,409.801575 548.045410,411.924255 548.034790,414.049072 
	C547.966858,427.647369 547.993591,441.246124 547.989197,454.844727 
	C543.631165,454.891266 539.273193,454.937775 534.453674,454.922577 
z"/>
<path fill="#C2A560" opacity="1.000000" stroke="none" 
	d="
M320.435547,322.706757 
	C320.007904,298.741608 320.002319,274.855957 320.443909,250.427368 
	C323.594818,249.937775 326.298523,249.991104 329.000549,250.510315 
	C329.003754,274.856659 329.008667,298.737091 329.013580,322.617554 
	C328.256714,322.709320 327.499817,322.801086 326.370239,322.978821 
	C324.284210,322.971924 322.570892,322.879089 320.435547,322.706757 
z"/>
<path fill="#97682F" opacity="1.000000" stroke="none" 
	d="
M548.387268,454.902100 
	C547.993591,441.246124 547.966858,427.647369 548.034790,414.049072 
	C548.045410,411.924255 548.486572,409.801575 548.897583,407.287720 
	C553.785217,413.885162 559.068848,420.564514 563.089966,427.932831 
	C569.080078,438.909271 564.895813,448.663727 552.290222,454.750671 
	C550.929016,454.943634 549.857178,454.951569 548.387268,454.902100 
z"/>
<path fill="#C8AD68" opacity="1.000000" stroke="none" 
	d="
M329.452759,322.696564 
	C329.008667,298.737091 329.003754,274.856659 329.439423,250.430481 
	C332.254211,249.939163 334.628448,249.993576 337.002686,250.047989 
	C337.007965,273.939789 337.013275,297.831604 337.021301,322.166748 
	C334.646667,322.665253 332.269287,322.720398 329.452759,322.696564 
z"/>
<path fill="#B59251" opacity="1.000000" stroke="none" 
	d="
M511.811371,100.744919 
	C512.011414,165.109573 512.030334,229.193130 512.069275,293.763092 
	C508.618317,296.421692 505.147369,298.593872 501.333191,300.358398 
	C500.993347,234.024887 500.978882,168.098984 501.068634,102.173248 
	C501.072052,99.662407 502.082275,97.152931 502.623352,94.642822 
	C505.625641,96.583153 508.627930,98.523483 511.811371,100.744919 
z"/>
<path fill="#BC9B59" opacity="1.000000" stroke="none" 
	d="
M502.387512,94.383347 
	C502.082275,97.152931 501.072052,99.662407 501.068634,102.173248 
	C500.978882,168.098984 500.993347,234.024887 500.988495,300.410645 
	C497.880768,302.470367 494.774475,304.070190 491.324158,305.716461 
	C490.983490,233.525070 490.986877,161.287231 490.989319,88.589783 
	C494.709473,90.128067 498.430573,92.125969 502.387512,94.383347 
z"/>
<path fill="#1C1C1C" opacity="1.000000" stroke="none" 
	d="
M337.463074,249.964951 
	C334.628448,249.993576 332.254211,249.939163 329.441101,249.964600 
	C326.298523,249.991104 323.594818,249.937775 320.446014,249.961075 
	C315.309662,249.996033 310.618408,249.954346 305.466614,249.987717 
	C302.631897,250.010513 300.257751,249.958267 297.443634,249.977798 
	C296.552124,249.957809 296.100616,249.866043 295.314270,249.685913 
	C291.452393,241.363785 287.696381,233.219193 284.446442,224.877457 
	C277.930115,208.151825 271.516876,191.381241 265.407959,174.503662 
	C262.248016,165.773453 259.830322,156.774582 257.037720,147.423737 
	C256.998199,146.950348 256.937897,146.752472 257.392151,146.849716 
	C261.232758,146.945740 264.619141,146.944519 268.462341,147.007263 
	C272.616333,147.026718 276.313507,146.982208 280.472260,147.003540 
	C285.623871,147.029709 290.313934,146.990021 295.462097,147.023987 
	C299.947449,147.052307 303.974670,147.006943 308.455322,147.036560 
	C312.277954,147.061813 315.647186,147.012100 318.990417,147.068390 
	C318.964417,147.174393 318.895111,147.381378 318.925354,147.753876 
	C319.018341,148.621948 319.005768,149.141434 319.154480,149.609711 
	C329.597321,182.492584 343.062225,214.095459 359.302216,244.529510 
	C360.130432,246.081573 360.436310,247.912354 360.985413,249.613373 
	C358.617188,249.704742 356.248962,249.796112 353.442078,249.965515 
	C347.976776,249.989639 342.950104,249.935776 337.463074,249.964951 
z"/>
<path fill="#97682F" opacity="1.000000" stroke="none" 
	d="
M240.916718,118.467377 
	C240.923920,109.551460 240.920166,101.098106 241.069778,92.647469 
	C241.237350,83.182198 247.831696,75.729462 257.628113,74.652756 
	C258.005676,96.393745 258.038635,117.653839 257.951965,138.913467 
	C257.941315,141.527802 257.291504,144.139526 256.937897,146.752472 
	C256.937897,146.752472 256.998199,146.950348 257.020874,147.051285 
	C245.877777,144.100830 241.079605,137.880020 241.026001,126.391670 
	C241.014389,123.904800 240.991272,121.417976 240.916718,118.467377 
z"/>
<path fill="#AE8949" opacity="1.000000" stroke="none" 
	d="
M295.003967,146.950333 
	C290.313934,146.990021 285.623871,147.029709 280.470856,146.539276 
	C280.012909,122.062546 280.017975,98.115913 280.023010,74.169273 
	C283.046875,74.097687 286.070709,74.026093 289.544434,73.893936 
	C291.390747,73.902069 292.787201,73.970757 294.595276,74.562424 
	C295.005920,99.040382 295.004944,122.995354 295.003967,146.950333 
z"/>
<path fill="#A47A3D" opacity="1.000000" stroke="none" 
	d="
M279.565338,74.100151 
	C280.017975,98.115913 280.012909,122.062546 280.009277,146.473450 
	C276.313507,146.982208 272.616333,147.026718 268.460693,146.542755 
	C268.006348,122.064003 268.010468,98.113754 268.014557,74.163506 
	C271.712250,74.119347 275.409973,74.075188 279.565338,74.100151 
z"/>
<path fill="#9D7035" opacity="1.000000" stroke="none" 
	d="
M267.563232,74.100616 
	C268.010468,98.113754 268.006348,122.064003 268.003876,146.478775 
	C264.619141,146.944519 261.232758,146.945740 257.392151,146.849716 
	C257.291504,144.139526 257.941315,141.527802 257.951965,138.913467 
	C258.038635,117.653839 258.005676,96.393745 258.012024,74.681229 
	C261.047211,74.165024 264.079590,74.101372 267.563232,74.100616 
z"/>
<path fill="#CEB56E" opacity="1.000000" stroke="none" 
	d="
M351.532593,73.878525 
	C352.752563,73.877800 353.510681,73.941185 354.634705,74.539139 
	C355.000732,99.037560 355.000885,123.001396 354.541931,147.062531 
	C348.389557,147.088577 342.696350,147.017334 337.002075,146.480820 
	C337.003815,122.064468 337.006592,98.113380 337.009338,74.162300 
	C341.696472,74.089073 346.383606,74.015846 351.532593,73.878525 
z"/>
<path fill="#B59251" opacity="1.000000" stroke="none" 
	d="
M295.462097,147.023987 
	C295.004944,122.995354 295.005920,99.040382 295.010101,74.628090 
	C299.039368,74.122437 303.065430,74.074089 307.547363,74.550850 
	C308.002747,99.037827 308.002319,122.999702 308.001892,146.961578 
	C303.974670,147.006943 299.947449,147.052307 295.462097,147.023987 
z"/>
<path fill="#BC9B59" opacity="1.000000" stroke="none" 
	d="
M308.455322,147.036560 
	C308.002319,122.999702 308.002747,99.037827 308.006897,74.617813 
	C311.374115,74.113701 314.737579,74.067726 318.551758,74.548271 
	C319.007080,99.037323 319.011749,122.999855 319.016418,146.962387 
	C315.647186,147.012100 312.277954,147.061813 308.455322,147.036560 
z"/>
<path fill="#C2A560" opacity="1.000000" stroke="none" 
	d="
M318.990417,147.068390 
	C319.011749,122.999855 319.007080,99.037323 319.005859,74.616470 
	C322.042450,74.111565 325.075592,74.064980 328.555664,74.546494 
	C329.002747,99.033783 329.002930,122.992973 328.552429,147.039108 
	C325.032867,147.211151 321.963989,147.296265 318.895111,147.381378 
	C318.895111,147.381378 318.964417,147.174393 318.990417,147.068390 
z"/>
<path fill="#C8AD68" opacity="1.000000" stroke="none" 
	d="
M329.003113,146.952179 
	C329.002930,122.992973 329.002747,99.033783 329.005585,74.616196 
	C331.382263,74.112083 333.755920,74.066376 336.569458,74.091476 
	C337.006592,98.113380 337.003815,122.064468 336.564789,146.569443 
	C333.753387,147.066284 331.378265,147.009232 329.003113,146.952179 
z"/>
<path fill="#ECE091" opacity="1.000000" stroke="none" 
	d="
M412.529480,73.895386 
	C417.017883,73.908745 421.042206,73.988365 425.523804,74.603088 
	C425.971741,99.156754 425.962341,123.175316 425.493713,147.280396 
	C411.024536,147.227249 397.014618,147.087585 383.002045,146.482513 
	C383.003967,122.064850 383.008545,98.112579 383.013153,74.160309 
	C392.697235,74.094093 402.381287,74.027878 412.529480,73.895386 
z"/>
<path fill="#DBC77D" opacity="1.000000" stroke="none" 
	d="
M355.001038,146.965240 
	C355.000885,123.001396 355.000732,99.037560 355.008209,74.615196 
	C359.373627,74.109314 363.731445,74.061951 368.546082,74.546326 
	C369.002472,99.037766 369.002075,122.997475 368.545410,147.052673 
	C363.726440,147.087204 359.363739,147.026215 355.001038,146.965240 
z"/>
<path fill="#E2D185" opacity="1.000000" stroke="none" 
	d="
M369.001648,146.957184 
	C369.002075,122.997475 369.002472,99.037766 369.006104,74.619736 
	C373.370728,74.109604 377.732147,74.057793 382.553345,74.083145 
	C383.008545,98.112579 383.003967,122.064850 382.552063,146.580521 
	C378.735657,147.225586 375.366608,147.307251 371.628479,147.298904 
	C370.506836,147.124985 369.754242,147.041092 369.001648,146.957184 
z"/>
<path fill="#CEB56E" opacity="1.000000" stroke="none" 
	d="
M451.973572,76.270691 
	C455.989838,76.987244 460.006104,77.703796 464.437469,78.470909 
	C466.668457,79.032547 468.484375,79.543633 470.641357,80.631592 
	C470.987762,106.559883 471.026184,131.911407 470.945190,157.262543 
	C470.937439,159.686615 470.184540,162.108307 469.483215,164.345032 
	C463.422943,160.268082 457.657043,156.377197 451.917328,151.987762 
	C451.953522,126.416359 451.963562,101.343521 451.973572,76.270691 
z"/>
<path fill="#C8AD68" opacity="1.000000" stroke="none" 
	d="
M469.777588,164.531097 
	C470.184540,162.108307 470.937439,159.686615 470.945190,157.262543 
	C471.026184,131.911407 470.987762,106.559883 470.979736,80.760284 
	C473.839050,81.242744 476.701111,82.173378 479.858185,83.265030 
	C480.102112,112.141785 480.075867,140.857635 479.946869,169.573013 
	C479.937744,171.600739 479.171326,173.625061 478.195038,175.554901 
	C475.014557,171.816284 472.396057,168.173691 469.777588,164.531097 
z"/>
<path fill="#E2D185" opacity="1.000000" stroke="none" 
	d="
M425.952942,147.193878 
	C425.962341,123.175316 425.971741,99.156754 425.979553,74.684265 
	C430.712677,74.443260 435.447418,74.656174 440.588684,75.436508 
	C440.995758,100.323280 440.996307,124.642654 440.663147,149.010559 
	C439.883698,149.098175 439.437958,149.137268 438.579346,149.100510 
	C434.095337,148.414398 430.024139,147.804138 425.952942,147.193878 
z"/>
<path fill="#DBC77D" opacity="1.000000" stroke="none" 
	d="
M440.996857,148.962036 
	C440.996307,124.642654 440.995758,100.323280 440.994354,75.540237 
	C444.376068,75.412132 447.758606,75.747711 451.557373,76.176987 
	C451.963562,101.343521 451.953522,126.416359 451.541931,151.887512 
	C447.759155,151.177902 444.378021,150.069962 440.996857,148.962036 
z"/>
<path fill="#232323" opacity="1.000000" stroke="none" 
	d="
M425.493713,147.280396 
	C430.024139,147.804138 434.095337,148.414398 438.587402,149.481369 
	C439.524872,151.664185 439.786987,153.521088 440.596802,155.096466 
	C450.260803,173.897003 459.858002,192.735184 469.848236,211.362091 
	C471.994995,215.364700 475.639587,218.563995 478.594177,222.133331 
	C478.346710,222.809631 478.099243,223.485947 477.743408,224.505997 
	C475.078949,227.811340 472.522827,230.772949 469.811646,234.007523 
	C464.603088,237.343704 459.549652,240.406921 454.250671,243.718918 
	C449.243286,245.236420 444.481445,246.505142 439.357849,247.919586 
	C435.274170,248.410507 431.552277,248.755707 427.405090,249.212372 
	C424.970367,249.394424 422.960907,249.465027 420.448364,249.078674 
	C412.810211,236.107849 405.310455,223.784485 398.644867,211.025345 
	C392.272858,198.828171 386.408447,186.331268 381.008881,173.672684 
	C377.384613,165.176102 374.959320,156.168091 371.997528,147.388931 
	C375.366608,147.307251 378.735657,147.225586 382.554718,147.045929 
	C397.014618,147.087585 411.024536,147.227249 425.493713,147.280396 
z"/>
<path fill="#1F1F1F" opacity="1.000000" stroke="none" 
	d="
M371.628479,147.298904 
	C374.959320,156.168091 377.384613,165.176102 381.008881,173.672684 
	C386.408447,186.331268 392.272858,198.828171 398.644867,211.025345 
	C405.310455,223.784485 412.810211,236.107849 420.026367,248.985321 
	C408.036865,249.515732 395.966339,249.683823 383.895721,249.848114 
	C381.907837,249.875168 379.919708,249.885559 377.034851,249.887726 
	C373.759766,249.931335 371.381531,249.990845 369.003326,250.050354 
	C366.622620,249.965622 364.241913,249.880875 361.423309,249.704742 
	C360.436310,247.912354 360.130432,246.081573 359.302216,244.529510 
	C343.062225,214.095459 329.597321,182.492584 319.154480,149.609711 
	C319.005768,149.141434 319.018341,148.621948 318.925354,147.753876 
	C321.963989,147.296265 325.032867,147.211151 328.552429,147.039124 
	C331.378265,147.009232 333.753387,147.066284 336.565826,147.034714 
	C342.696350,147.017334 348.389557,147.088577 354.541931,147.062531 
	C359.363739,147.026215 363.726440,147.087204 368.545410,147.052673 
	C369.754242,147.041092 370.506836,147.124985 371.628479,147.298904 
z"/>
<path fill="#E2D185" opacity="1.000000" stroke="none" 
	d="
M369.001465,250.515778 
	C371.381531,249.990845 373.759766,249.931335 376.573486,249.972748 
	C377.027893,273.683105 377.046783,297.292542 377.105286,321.349121 
	C369.003265,322.199738 368.998047,322.199738 368.997375,314.349030 
	C368.995514,293.226410 368.998535,272.103821 369.001465,250.515778 
z"/>
<path fill="#292928" opacity="1.000000" stroke="none" 
	d="
M478.786438,221.859192 
	C475.639587,218.563995 471.994995,215.364700 469.848236,211.362091 
	C459.858002,192.735184 450.260803,173.897003 440.596802,155.096466 
	C439.786987,153.521088 439.524872,151.664185 439.000244,149.557220 
	C439.437958,149.137268 439.883698,149.098175 440.663147,149.010559 
	C444.378021,150.069962 447.759155,151.177902 451.515747,152.386078 
	C457.657043,156.377197 463.422943,160.268082 469.483215,164.345032 
	C472.396057,168.173691 475.014557,171.816284 477.848663,175.726013 
	C482.826935,187.485809 484.281799,199.377304 482.001587,211.614334 
	C481.369232,215.007843 480.006378,218.265228 478.786438,221.859192 
z"/>
</svg>